<svg width="646" height="666" viewBox="0 0 646 666" fill="none" xmlns="http://www.w3.org/2000/svg">
<path fill-rule="evenodd" clip-rule="evenodd" d="M143 108C192.705 108 233 67.7056 233 18C233 16.1036 232.941 14.221 232.826 12.3537C261.505 4.30479 291.75 0 323.001 0C354.251 0 384.495 4.30459 413.174 12.3532C413.058 14.2206 413 16.1035 413 18C413 67.7056 453.294 108 503 108C521.675 108 539.022 102.312 553.402 92.5739C597.703 135.039 630.29 189.628 645.831 251.009C614.67 265.158 593 296.548 593 333C593 369.452 614.67 400.842 645.831 414.991C630.29 476.372 597.703 530.961 553.402 573.426C539.022 563.688 521.675 558 503 558C453.294 558 413 598.294 413 648C413 649.897 413.058 651.779 413.174 653.647C384.495 661.695 354.251 666 323.001 666C291.75 666 261.505 661.695 232.826 653.646C232.941 651.779 233 649.896 233 648C233 598.294 192.705 558 143 558C124.325 558 106.979 563.688 92.5988 573.425C48.2982 530.96 15.7111 476.371 0.169922 414.99C31.3298 400.841 52.9997 369.451 52.9997 333C52.9997 296.549 31.3298 265.159 0.169922 251.01C15.7111 189.629 48.2982 135.04 92.5989 92.5747C106.979 102.312 124.325 108 143 108ZM323.001 405C362.765 405 395.001 372.764 395.001 333C395.001 293.236 362.765 261 323.001 261C283.236 261 251.001 293.236 251.001 333C251.001 372.764 283.236 405 323.001 405ZM593 438C593 487.706 552.705 528 503 528C453.294 528 413 487.706 413 438C413 388.294 453.294 348 503 348C552.705 348 593 388.294 593 438ZM143 528C192.705 528 233 487.706 233 438C233 388.294 192.705 348 143 348C93.294 348 52.9997 388.294 52.9997 438C52.9997 487.706 93.294 528 143 528ZM593 228C593 277.706 552.705 318 503 318C453.294 318 413 277.706 413 228C413 178.294 453.294 138 503 138C552.705 138 593 178.294 593 228ZM323 213C372.705 213 413 172.706 413 123C413 73.2944 372.705 33 323 33C273.294 33 233 73.2944 233 123C233 172.706 273.294 213 323 213ZM413 543C413 592.706 372.705 633 323 633C273.294 633 233 592.706 233 543C233 493.294 273.294 453 323 453C372.705 453 413 493.294 413 543ZM143 318C192.705 318 233 277.706 233 228C233 178.294 192.705 138 143 138C93.294 138 52.9997 178.294 52.9997 228C52.9997 277.706 93.294 318 143 318ZM143.17 291C177.964 291 206.17 262.794 206.17 228C206.17 193.206 177.964 165 143.17 165C108.376 165 80.1696 193.206 80.1696 228C80.1696 262.794 108.376 291 143.17 291ZM143.17 264C163.052 264 179.17 247.882 179.17 228C179.17 208.118 163.052 192 143.17 192C123.288 192 107.17 208.118 107.17 228C107.17 247.882 123.288 264 143.17 264Z" fill="#F6BF61"/>
<path d="M378 333C378 363.376 353.376 388 323 388C292.624 388 268 363.376 268 333C268 302.624 292.624 278 323 278C353.376 278 378 302.624 378 333Z" fill="#F6BF61"/>
</svg>
